#Comment line ignore any data following # character 
#Hierarchical Translation and Rotation (.htr) file 
[Header]	
#Header keywords are followed by a single value 
FileType HTR		#Single word string
DataType HTRS		#Translation followed by rotation and scale data
FileVersion 1		#integer
NumSegments 64		#integer
NumFrames 3		#integer
DataFrameRate 30		#integer, data frame rate in this file
EulerRotationOrder ZYX
CalibrationUnits mm
RotationUnits Degrees
GlobalAxisofGravity Y
BoneLengthAxis Y
ScaleFactor 1.00
[SegmentNames&Hierarchy]
#CHILD	PARENT
Pinger_Root GLOBAL
Pelvis Pinger_Root
L_Hip Pelvis
R_Hip Pelvis
Rear_Leg01 Pelvis
Spine1 Pelvis
L_Leg01 L_Hip
L_Leg02 L_Leg01
L_Leg03 L_Leg02
L_Foot L_Leg03
L_Toe1_01 L_Foot
L_Toe2_01 L_Foot
L_Toe3_01 L_Foot
planeAlignerLeft L_Foot
L_Toe1_02 L_Toe1_01
L_Toe1_03 L_Toe1_02
L_Toe2_02 L_Toe2_01
L_Toe2_03 L_Toe2_02
L_Toe3_02 L_Toe3_01
L_Toe3_03 L_Toe3_02
planeLockWeightLeft planeAlignerLeft
R_Leg01 R_Hip
R_Leg02 R_Leg01
R_Leg03 R_Leg02
R_Foot R_Leg03
planeAlignerRight R_Foot
R_Toe1_01 R_Foot
R_Toe2_01 R_Foot
R_Toe3_01 R_Foot
planeLockWeightRight planeAlignerRight
R_Toe1_02 R_Toe1_01
R_Toe1_03 R_Toe1_02
R_Toe2_02 R_Toe2_01
R_Toe2_03 R_Toe2_02
R_Toe3_02 R_Toe3_01
R_Toe3_03 R_Toe3_02
Rear_Leg02 Rear_Leg01
Rear_Leg03 Rear_Leg02
Rear_Leg04 Rear_Leg03
Rear_Foot Rear_Leg04
planeAlignerCenter Rear_Foot
Rear_Toe1_01 Rear_Foot
Rear_Toe2_01 Rear_Foot
Rear_Toe3_01 Rear_Foot
planeLockWeightCenter planeAlignerCenter
Rear_Toe1_02 Rear_Toe1_01
Rear_Toe1_03 Rear_Toe1_02
Rear_Toe2_02 Rear_Toe2_01
Rear_Toe2_03 Rear_Toe2_02
Rear_Toe3_02 Rear_Toe3_01
Rear_Toe3_03 Rear_Toe3_02
Back_Bone Spine1
Head Spine1
Motor_Bone Back_Bone
Ping_Mechanism Back_Bone
BN_LookIK Head
bottomMouth Head
L_Mouth01 Head
L_mouthFront Head
mouthGun Head
R_Mouth01 Head
R_mouthFront Head
TopMouth Head
weapon_bone Head
[BasePosition]
#SegmentName Tx, Ty, Tz, Rx, Ry, Rz, BoneLength
Pinger_Root 0.000000 0.000000 0.000000 -90.000000 0.000000 0.000000 10.000000 
Pelvis 0.000000 0.000000 0.000000 0.000000 0.000000 0.000000 10.000000 
L_Hip 0.000000 0.000000 0.000000 0.000000 0.000000 0.000000 10.000000 
R_Hip 0.000000 0.000000 0.000000 0.000000 0.000000 0.000000 10.000000 
Rear_Leg01 0.000000 0.000000 0.000000 0.000000 0.000000 0.000000 10.000000 
Spine1 0.000000 0.000000 0.000000 0.000000 0.000000 0.000000 10.000000 
L_Leg01 0.000000 0.000000 0.000000 0.000000 0.000000 0.000000 10.000000 
L_Leg02 0.000000 0.000000 0.000000 0.000000 0.000000 0.000000 10.000000 
L_Leg03 0.000000 0.000000 0.000000 0.000000 0.000000 0.000000 10.000000 
L_Foot 0.000000 0.000000 0.000000 0.000000 0.000000 0.000000 10.000000 
L_Toe1_01 0.000000 0.000000 0.000000 0.000000 0.000000 0.000000 10.000000 
L_Toe2_01 0.000000 0.000000 0.000000 0.000000 0.000000 0.000000 10.000000 
L_Toe3_01 0.000000 0.000000 0.000000 0.000000 0.000000 0.000000 10.000000 
planeAlignerLeft 0.000000 0.000000 0.000000 0.000000 0.000000 0.000000 10.000000 
L_Toe1_02 0.000000 0.000000 0.000000 0.000000 0.000000 0.000000 10.000000 
L_Toe1_03 0.000000 0.000000 0.000000 0.000000 0.000000 0.000000 10.000000 
L_Toe2_02 0.000000 0.000000 0.000000 0.000000 0.000000 0.000000 10.000000 
L_Toe2_03 0.000000 0.000000 0.000000 0.000000 0.000000 0.000000 10.000000 
L_Toe3_02 0.000000 0.000000 0.000000 0.000000 0.000000 0.000000 10.000000 
L_Toe3_03 0.000000 0.000000 0.000000 0.000000 0.000000 0.000000 10.000000 
planeLockWeightLeft 0.000000 0.000000 0.000000 0.000000 0.000000 0.000000 10.000000 
R_Leg01 0.000000 0.000000 0.000000 0.000000 0.000000 0.000000 10.000000 
R_Leg02 0.000000 0.000000 0.000000 0.000000 0.000000 0.000000 10.000000 
R_Leg03 0.000000 0.000000 0.000000 0.000000 0.000000 0.000000 10.000000 
R_Foot 0.000000 0.000000 0.000000 0.000000 0.000000 0.000000 10.000000 
planeAlignerRight 0.000000 0.000000 0.000000 0.000000 0.000000 0.000000 10.000000 
R_Toe1_01 0.000000 0.000000 0.000000 0.000000 0.000000 0.000000 10.000000 
R_Toe2_01 0.000000 0.000000 0.000000 0.000000 0.000000 0.000000 10.000000 
R_Toe3_01 0.000000 0.000000 0.000000 0.000000 0.000000 0.000000 10.000000 
planeLockWeightRight 0.000000 0.000000 0.000000 0.000000 0.000000 0.000000 10.000000 
R_Toe1_02 0.000000 0.000000 0.000000 0.000000 0.000000 0.000000 10.000000 
R_Toe1_03 0.000000 0.000000 0.000000 0.000000 0.000000 0.000000 10.000000 
R_Toe2_02 0.000000 0.000000 0.000000 0.000000 0.000000 0.000000 10.000000 
R_Toe2_03 0.000000 0.000000 0.000000 0.000000 0.000000 0.000000 10.000000 
R_Toe3_02 0.000000 0.000000 0.000000 0.000000 0.000000 0.000000 10.000000 
R_Toe3_03 0.000000 0.000000 0.000000 0.000000 0.000000 0.000000 10.000000 
Rear_Leg02 0.000000 0.000000 0.000000 0.000000 0.000000 0.000000 10.000000 
Rear_Leg03 0.000000 0.000000 0.000000 0.000000 0.000000 0.000000 10.000000 
Rear_Leg04 0.000000 0.000000 0.000000 0.000000 0.000000 0.000000 10.000000 
Rear_Foot 0.000000 0.000000 0.000000 0.000000 0.000000 0.000000 10.000000 
planeAlignerCenter 0.000000 0.000000 0.000000 0.000000 0.000000 0.000000 10.000000 
Rear_Toe1_01 0.000000 0.000000 0.000000 0.000000 0.000000 0.000000 10.000000 
Rear_Toe2_01 0.000000 0.000000 0.000000 0.000000 0.000000 0.000000 10.000000 
Rear_Toe3_01 0.000000 0.000000 0.000000 0.000000 0.000000 0.000000 10.000000 
planeLockWeightCenter 0.000000 0.000000 0.000000 0.000000 0.000000 0.000000 10.000000 
Rear_Toe1_02 0.000000 0.000000 0.000000 0.000000 0.000000 0.000000 10.000000 
Rear_Toe1_03 0.000000 0.000000 0.000000 0.000000 0.000000 0.000000 10.000000 
Rear_Toe2_02 0.000000 0.000000 0.000000 0.000000 0.000000 0.000000 10.000000 
Rear_Toe2_03 0.000000 0.000000 0.000000 0.000000 0.000000 0.000000 10.000000 
Rear_Toe3_02 0.000000 0.000000 0.000000 0.000000 0.000000 0.000000 10.000000 
Rear_Toe3_03 0.000000 0.000000 0.000000 0.000000 0.000000 0.000000 10.000000 
Back_Bone 0.000000 0.000000 0.000000 0.000000 0.000000 0.000000 10.000000 
Head 0.000000 0.000000 0.000000 0.000000 0.000000 0.000000 10.000000 
Motor_Bone 0.000000 0.000000 0.000000 0.000000 0.000000 0.000000 10.000000 
Ping_Mechanism 0.000000 0.000000 0.000000 0.000000 0.000000 0.000000 10.000000 
BN_LookIK 0.000000 0.000000 0.000000 0.000000 0.000000 0.000000 10.000000 
bottomMouth 0.000000 0.000000 0.000000 0.000000 0.000000 0.000000 10.000000 
L_Mouth01 0.000000 0.000000 0.000000 0.000000 0.000000 0.000000 10.000000 
L_mouthFront 0.000000 0.000000 0.000000 0.000000 0.000000 0.000000 10.000000 
mouthGun 0.000000 0.000000 0.000000 0.000000 0.000000 0.000000 10.000000 
R_Mouth01 0.000000 0.000000 0.000000 0.000000 0.000000 0.000000 10.000000 
R_mouthFront 0.000000 0.000000 0.000000 0.000000 0.000000 0.000000 10.000000 
TopMouth 0.000000 0.000000 0.000000 0.000000 0.000000 0.000000 10.000000 
weapon_bone 0.000000 0.000000 0.000000 0.000000 0.000000 0.000000 10.000000 
#Beginning of Data. Separated by tabs
#Fr	Tx	Ty	Tz	Rx	Ry	Rz	SF
[Pinger_Root]
57 0.000000 0.000000 0.000000 -0.000075 0.000009 13.800550 0.000000
58 0.000000 0.000000 0.000000 -0.000074 0.000010 15.840271 0.000000
59 0.000000 0.000000 0.000000 -0.000074 0.000012 18.042734 0.000000
[Pelvis]
57 3195.626709 -552.118958 3109.961670 -85.824722 -76.517464 66.526352 4493.187012
58 3177.292480 -643.697083 3087.092041 -72.676735 -76.882698 52.005882 4476.569336
59 3115.014404 -722.919189 3060.084473 -59.400761 -76.702065 37.204861 4426.063965
[L_Hip]
57 5.766392 125.831482 872.656799 160.158691 -45.484894 122.312202 881.701050
58 5.766392 125.831482 872.656799 160.158691 -45.484894 122.312202 881.701050
59 5.766392 125.831482 872.656799 160.158691 -45.484905 122.312202 881.701050
[R_Hip]
57 5.765438 125.836372 -872.654907 38.087841 49.812687 125.703735 881.699829
58 5.765438 125.836372 -872.654907 38.087830 49.812672 125.703735 881.699829
59 5.765438 125.836372 -872.654907 38.087841 49.812687 125.703735 881.699829
[Rear_Leg01]
57 -192.298416 -925.602966 -0.001907 176.595322 -25.929148 -160.635117 945.367432
58 -192.298416 -925.602966 -0.001907 178.297089 -23.870169 -159.965256 945.367432
59 -192.298416 -925.602966 -0.001907 -179.763901 -21.178282 -158.956207 945.367432
[Spine1]
57 290.604584 5.007505 0.000477 13.798079 -6.542664 11.853963 290.647736
58 290.604584 5.007505 0.000477 16.595066 -11.327416 9.556319 290.647736
59 290.604584 5.007505 0.000477 19.303400 -15.199258 6.900104 290.647736
[L_Leg01]
57 761.932007 -0.002384 -0.069261 51.885750 4.251945 1.498820 761.932068
58 761.932007 -0.002384 -0.069261 55.714260 5.936945 -3.329031 761.932068
59 761.932007 -0.002384 -0.069261 58.031960 6.880070 -7.846855 761.932068
[L_Leg02]
57 1441.140503 -0.000954 -0.000715 -1.497346 0.267836 -77.277214 1441.140503
58 1441.140503 -0.000954 -0.000715 -1.546959 0.303909 -74.555847 1441.140503
59 1441.140503 -0.000954 -0.000715 -1.561771 0.317828 -73.453857 1441.140503
[L_Leg03]
57 1686.963989 -0.000715 -0.000954 0.006552 -0.003414 108.247215 1686.963989
58 1686.963989 -0.000715 -0.000954 0.012184 -0.005346 106.912041 1686.963989
59 1686.963989 -0.000715 -0.000954 0.012210 -0.005285 106.332298 1686.963989
[L_Foot]
57 3041.570068 -30.715107 11.297464 -42.565285 21.888401 8.222989 3041.746094
58 3041.570068 -30.715107 11.297464 -45.025784 24.115540 10.314561 3041.746094
59 3041.570068 -30.715107 11.297464 -46.507462 25.752689 13.104944 3041.746094
[L_Toe1_01]
57 -188.216690 -224.732346 -21.137953 93.185318 -2.758249 -164.231903 293.899567
58 -188.216690 -224.732346 -21.137953 93.171165 -2.718738 -163.999710 293.899567
59 -188.216690 -224.732346 -21.137953 93.157166 -2.679171 -163.767548 293.899567
[L_Toe2_01]
57 200.746536 -219.926590 148.838394 -89.398514 -20.128521 -58.589512 332.896027
58 200.746536 -219.926590 148.838394 -89.347260 -20.035147 -58.783245 332.896027
59 200.746536 -219.926590 148.838394 -89.296349 -19.941610 -58.976784 332.896027
[L_Toe3_01]
57 188.832520 -219.859131 -191.078659 -102.840599 15.935184 -77.235626 347.140900
58 188.832520 -219.859131 -191.078659 -102.897202 15.926418 -77.504868 347.140900
59 188.832520 -219.859131 -191.078659 -102.953766 15.917404 -77.774071 347.140900
[planeAlignerLeft]
57 0.812531 -811.448792 -0.314951 0.000000 -90.000000 -90.001900 811.449280
58 0.812531 -811.448792 -0.314951 0.000000 -90.000000 -90.001900 811.449280
59 0.812531 -811.448792 -0.314951 0.000000 -90.000000 -90.001900 811.449280
[L_Toe1_02]
57 413.761139 0.000477 0.000000 0.001387 -25.569372 0.001387 413.761139
58 413.761139 0.000477 0.000000 0.001388 -25.498930 0.001388 413.761139
59 413.761139 0.000477 0.000000 0.001388 -25.428490 0.001388 413.761139
[L_Toe1_03]
57 464.317322 0.000358 -0.000089 0.003004 43.998398 0.003004 464.317322
58 464.317322 0.000358 -0.000089 0.002974 43.513828 0.002974 464.317322
59 464.317322 0.000358 -0.000089 0.002945 43.029255 0.002945 464.317322
[L_Toe2_02]
57 342.235809 -0.000477 0.000238 0.001190 -71.022804 0.001190 342.235809
58 342.235809 -0.000477 0.000238 0.001190 -70.868103 0.001190 342.235809
59 342.235809 -0.000477 0.000238 0.001190 -70.713356 0.001190 342.235809
[L_Toe2_03]
57 420.210846 -0.000715 0.000000 0.016441 81.812996 0.016441 420.210846
58 420.210846 -0.000715 0.000000 0.015942 81.556381 0.015942 420.210846
59 420.210846 -0.000715 0.000000 0.015473 81.299782 0.015473 420.210846
[L_Toe3_02]
57 329.270111 0.000954 0.000000 0.001185 -74.059494 0.001185 329.270111
58 329.270111 0.000954 0.000000 0.001185 -73.847244 0.001185 329.270111
59 329.270111 0.000954 0.000000 0.001186 -73.635017 0.001186 329.270111
[L_Toe3_03]
57 439.137451 -0.001907 0.000954 0.017342 82.238991 0.017342 439.137451
58 439.137451 -0.001907 0.000954 0.016154 81.667046 0.016154 439.137451
59 439.137451 -0.001907 0.000954 0.015118 81.095085 0.015118 439.137451
[planeLockWeightLeft]
57 -0.000954 0.000238 -0.000305 -0.011826 -0.004376 0.005620 0.001029
58 -0.000954 0.000238 -0.000305 -0.011826 -0.004376 0.005620 0.001029
59 -0.000954 0.000238 -0.000305 -0.011826 -0.004376 0.005620 0.001029
[R_Leg01]
57 761.455627 -0.001907 -0.000358 73.905685 -57.287720 57.204254 761.455688
58 761.455627 -0.001907 -0.000358 69.570801 -55.882755 58.776058 761.455688
59 761.455627 -0.001907 -0.000358 66.350082 -52.876499 58.409416 761.455688
[R_Leg02]
57 1441.140625 0.000000 -0.000238 -3.808613 -1.530264 147.484604 1441.140625
58 1441.140625 0.000000 -0.000238 -3.812403 -1.472216 144.491211 1441.140625
59 1441.140625 0.000000 -0.000238 -3.807258 -1.413939 142.242386 1441.140625
[R_Leg03]
57 1686.963989 0.000954 0.001431 0.110079 -0.067264 140.401077 1686.963989
58 1686.963989 0.000954 0.001431 0.107263 -0.065210 139.795425 1686.963989
59 1686.963989 0.000954 0.001431 0.104425 -0.063186 139.189774 1686.963989
[R_Foot]
57 3041.560059 -30.531288 -11.204481 -8.406428 -79.150459 103.664078 3041.734131
58 3041.560059 -30.531288 -11.204481 -5.289987 -81.416451 102.805878 3041.734131
59 3041.560059 -30.531288 -11.204481 6.684323 -83.349525 93.945084 3041.734131
[planeAlignerRight]
57 -0.635147 -812.270569 -0.364304 0.000000 -89.960434 -90.005180 812.270874
58 -0.635147 -812.270569 -0.364304 0.000000 -89.960434 -90.005180 812.270874
59 -0.635147 -812.270569 -0.364304 0.000000 -89.960434 -90.005180 812.270874
[R_Toe1_01]
57 -188.383347 -224.864899 21.052242 76.545868 12.516408 179.982941 294.101532
58 -188.383347 -224.864899 21.052242 76.565346 12.550322 -179.992188 294.101532
59 -188.383347 -224.864899 21.052242 76.584846 12.584232 -179.967300 294.101532
[R_Toe2_01]
57 200.637817 -220.002121 -148.787384 -94.824600 49.705303 -53.781578 332.857574
58 200.637817 -220.002121 -148.787384 -94.829659 49.726326 -53.775772 332.857574
59 200.637817 -220.002121 -148.787384 -94.834709 49.747341 -53.769962 332.857574
[R_Toe3_01]
57 188.606735 -220.092957 191.126343 -77.339073 1.637966 -54.166840 347.192566
58 188.606735 -220.092957 191.126343 -77.339684 1.655913 -54.095734 347.192566
59 188.606735 -220.092957 191.126343 -77.340240 1.673858 -54.024624 347.192566
[planeLockWeightRight]
57 -0.000477 0.000000 0.000000 -0.011823 -0.004379 -0.000027 0.000477
58 -0.000477 0.000000 0.000000 -0.011823 -0.004379 -0.000027 0.000477
59 -0.000477 0.000000 0.000000 -0.011823 -0.004379 -0.000027 0.000477
[R_Toe1_02]
57 413.762085 0.000477 -0.000119 0.001384 -25.929609 0.001384 413.762085
58 413.762085 0.000477 -0.000119 0.001384 -25.932571 0.001384 413.762085
59 413.762085 0.000477 -0.000119 0.001384 -25.935528 0.001384 413.762085
[R_Toe1_03]
57 464.317810 0.000000 0.001088 0.004024 56.087826 0.004024 464.317810
58 464.317810 0.000000 0.001088 0.004009 55.954685 0.004009 464.317810
59 464.317810 0.000000 0.001088 0.003994 55.821518 0.003994 464.317810
[R_Toe2_02]
57 342.234741 -0.000954 0.000238 0.001203 -64.595451 0.001203 342.234741
58 342.234741 -0.000954 0.000238 0.001203 -64.615936 0.001203 342.234741
59 342.234741 -0.000954 0.000238 0.001203 -64.636436 0.001203 342.234741
[R_Toe2_03]
57 420.210846 0.000715 -0.000268 -0.004868 68.552017 -0.001309 420.210846
58 420.210846 0.000715 -0.000268 -0.004879 68.630600 -0.001321 420.210846
59 420.210846 0.000715 -0.000268 -0.004890 68.709114 -0.001332 420.210846
[R_Toe3_02]
57 329.270355 -0.000477 -0.000954 0.001175 -84.249977 0.001175 329.270355
58 329.270355 -0.000477 -0.000954 0.001175 -84.257515 0.001175 329.270355
59 329.270355 -0.000477 -0.000954 0.001175 -84.264961 0.001175 329.270355
[R_Toe3_03]
57 439.137939 0.000238 0.001431 -179.995956 54.903111 -179.988632 439.137939
58 439.137939 0.000238 0.001431 -179.995987 54.806648 -179.988663 439.137939
59 439.137939 0.000238 0.001431 -179.996002 54.710163 -179.988663 439.137939
[Rear_Leg02]
57 1162.777710 -0.029802 0.005960 1.900313 -2.266464 -152.403549 1162.777710
58 1162.777710 -0.029802 0.005960 1.911731 -2.258255 -152.678665 1162.777710
59 1162.777710 -0.029802 0.005960 1.956886 -2.215992 -153.960251 1162.777710
[Rear_Leg03]
57 607.192505 -0.013351 -0.073195 0.010244 -0.005586 73.562675 607.192505
58 607.192505 -0.013351 -0.073195 0.010241 -0.005593 73.636795 607.192505
59 607.192505 -0.013351 -0.073195 0.010224 -0.005623 73.970764 607.192505
[Rear_Leg04]
57 995.874512 -0.020504 -0.011921 -0.045099 -0.018288 79.272049 995.874573
58 995.874512 -0.020504 -0.011921 -0.045131 -0.018209 79.471291 995.874573
59 995.874512 -0.020504 -0.011921 -0.045273 -0.017853 80.374634 995.874573
[Rear_Foot]
57 3096.176270 -0.067472 -0.041425 -175.270844 62.802021 24.993002 3096.176270
58 3096.176270 -0.067472 -0.041425 -175.353806 62.549618 25.488089 3096.176270
59 3096.176270 -0.067472 -0.041425 -175.362381 62.988987 26.330889 3096.176270
[planeAlignerCenter]
57 0.350077 0.966311 -838.790894 0.000009 0.000003 -179.999985 838.791565
58 0.350077 0.966311 -838.790894 0.000009 0.000003 -179.999985 838.791565
59 0.350077 0.966311 -838.790894 0.000009 0.000003 -179.999985 838.791565
[Rear_Toe1_01]
57 0.653352 83.966492 -371.173737 0.294051 41.910843 90.409210 380.553192
58 0.653352 83.966492 -371.173737 0.294062 41.910778 90.409233 380.553192
59 0.653352 83.966492 -371.173737 0.294071 41.910728 90.409279 380.553192
[Rear_Toe2_01]
57 178.200760 -294.826019 -362.060547 -7.198256 34.405029 -66.271645 499.765686
58 178.200760 -294.826019 -362.060547 -7.198293 34.405010 -66.271667 499.765686
59 178.200760 -294.826019 -362.060547 -7.198328 34.404987 -66.271675 499.765686
[Rear_Toe3_01]
57 -153.359680 -308.780914 -362.060852 3.289841 33.514889 -112.541557 499.952881
58 -153.359680 -308.780914 -362.060852 3.289849 33.514835 -112.541557 499.952881
59 -153.359680 -308.780914 -362.060852 3.289857 33.514778 -112.541565 499.952881
[planeLockWeightCenter]
57 -0.000062 0.000238 0.000000 -0.011814 -0.004373 -0.000015 0.000246
58 -0.000062 0.000238 0.000000 -0.011814 -0.004373 -0.000015 0.000246
59 -0.000062 0.000238 0.000000 -0.011814 -0.004373 -0.000015 0.000246
[Rear_Toe1_02]
57 379.707825 0.194073 0.000477 -0.000242 -31.678999 0.006934 379.707855
58 379.707825 0.194073 0.000477 -0.000242 -31.679029 0.006934 379.707855
59 379.707825 0.194073 0.000477 -0.000242 -31.679081 0.006934 379.707855
[Rear_Toe1_03]
57 500.129700 0.165701 0.000119 -0.000103 51.909698 0.007296 500.129761
58 500.129700 0.165701 0.000119 -0.000103 51.909828 0.007296 500.129761
59 500.129700 0.165701 0.000119 -0.000103 51.909954 0.007296 500.129761
[Rear_Toe2_02]
57 340.494507 0.000238 -0.000954 0.001192 -69.857170 0.001192 340.494507
58 340.494507 0.000238 -0.000954 0.001192 -69.857201 0.001192 340.494507
59 340.494507 0.000238 -0.000954 0.001192 -69.857246 0.001192 340.494507
[Rear_Toe2_03]
57 433.103577 0.000000 0.000238 0.006697 69.812973 0.006697 433.103546
58 433.103577 0.000000 0.000238 0.006697 69.813019 0.006697 433.103546
59 433.103577 0.000000 0.000238 0.006697 69.813042 0.006697 433.103546
[Rear_Toe3_02]
57 340.494141 -0.000358 -0.000477 0.008289 -67.277313 -0.009461 340.494171
58 340.494141 -0.000358 -0.000477 0.008289 -67.277336 -0.009461 340.494171
59 340.494141 -0.000358 -0.000477 0.008289 -67.277390 -0.009461 340.494171
[Rear_Toe3_03]
57 433.103577 0.001431 -0.000238 -0.000972 65.958977 -0.004547 433.103546
58 433.103577 0.001431 -0.000238 -0.000972 65.958961 -0.004547 433.103546
59 433.103577 0.001431 -0.000238 -0.000972 65.958984 -0.004547 433.103546
[Back_Bone]
57 1312.175781 -701.934692 0.000954 0.000023 -0.000007 -85.606667 1488.125488
58 1312.175781 -701.934692 0.000954 0.000023 -0.000007 -85.606667 1488.125488
59 1312.175781 -701.934692 0.000954 0.000023 -0.000007 -85.606667 1488.125488
[Head]
57 1406.159424 809.709290 0.001431 -0.000237 -1.475410 12.077641 1622.625488
58 1406.159424 809.709290 0.001431 0.000927 -1.477515 9.657958 1622.625488
59 1406.159424 809.709290 0.001431 0.002368 -1.474981 6.865973 1622.625488
[Motor_Bone]
57 1158.364380 -417.834747 0.000477 -7.096247 -2.571987 -105.294418 1231.419434
58 1158.364380 -417.834747 0.000477 -6.762692 -2.489730 -105.358063 1231.419434
59 1158.364380 -417.834747 0.000477 -6.429240 -2.407101 -105.421196 1231.419434
[Ping_Mechanism]
57 1234.461426 -439.201294 2.016483 0.000103 -0.000053 82.120995 1310.265991
58 1234.454468 -438.495667 3.024356 0.000103 -0.000053 82.120995 1310.025024
59 1234.447754 -437.790039 4.032226 0.000103 -0.000053 82.120995 1309.785278
[BN_LookIK]
57 193.241119 1380.371704 -0.002861 0.000000 89.965736 -31.038179 1393.832153
58 193.241119 1380.371704 -0.002861 0.000000 89.965736 -31.038179 1393.832153
59 193.241119 1380.371704 -0.002861 0.000000 89.965736 -31.038179 1393.832153
[bottomMouth]
57 -435.092926 615.759399 -0.000954 -0.000022 0.000016 73.527184 753.966492
58 -435.092926 615.759399 -0.000954 -0.000022 0.000016 73.527184 753.966492
59 -435.092926 615.759399 -0.000954 -0.000022 0.000016 73.527184 753.966492
[L_Mouth01]
57 554.440979 7.658243 838.222046 150.204178 23.759130 109.605339 1005.027161
58 554.440979 7.658243 838.222046 150.204178 23.759130 109.605339 1005.027161
59 554.440979 7.658243 838.222046 150.204178 23.759130 109.605339 1005.027161
[L_mouthFront]
57 551.629089 934.514771 339.150421 0.000081 2.804060 79.119301 1136.941284
58 551.629089 934.514771 339.150421 0.000081 2.804060 79.119301 1136.941284
59 551.629089 934.514771 339.150421 0.000081 2.804060 79.119301 1136.941284
[mouthGun]
57 55.332661 1627.420898 0.000000 0.000023 0.000009 -11.038128 1628.361328
58 55.332661 1627.420898 0.000000 0.000023 0.000009 -11.038128 1628.361328
59 55.332661 1627.420898 0.000000 0.000023 0.000009 -11.038128 1628.361328
[R_Mouth01]
57 554.442383 7.659197 -838.223938 29.795891 -23.759109 109.605331 1005.029541
58 554.442383 7.659197 -838.223938 29.795891 -23.759109 109.605331 1005.029541
59 554.442383 7.659197 -838.223938 29.795891 -23.759109 109.605331 1005.029541
[R_mouthFront]
57 551.629089 934.514282 -339.151367 0.000029 -2.803930 79.119133 1136.941162
58 551.629089 934.514282 -339.151367 0.000029 -2.803930 79.119133 1136.941162
59 551.629089 934.514282 -339.151367 0.000029 -2.803930 79.119133 1136.941162
[TopMouth]
57 461.269867 -56.106091 -0.008583 -0.000059 -0.000268 92.025169 464.669525
58 461.269867 -56.106091 -0.008583 -0.000059 -0.000268 92.025169 464.669525
59 461.269867 -56.106091 -0.008583 -0.000059 -0.000268 92.025169 464.669525
[weapon_bone]
57 -987.239868 1448.372803 0.001431 0.000000 89.965736 -31.038221 1752.833740
58 -987.239868 1448.372803 0.001431 0.000000 89.965736 -31.038221 1752.833740
59 -987.239868 1448.372803 0.001431 0.000000 89.965736 -31.038221 1752.833740
